# xmcd
#
# Track frame offsets:
# 150
# 19924
# 42976
# 58951
# 84337
# 116072
# 133712
# 151837
# 167276
# 185483
# 201295
# 213550
#
# Disc length: 3084 seconds
#
#
# Revision: 0
# Processed by: cddbd v1.5.2PL0 Copyright (c) Steve Scherf et al.
# Submitted via: FreeRIP 2.96 
#
DISCID=a50c0a0c
DTITLE=H.T. Roberts - Motion/Still
DYEAR=2009
DGENRE=
TTITLE0=Gospel Hill
TTITLE1=The Potter
TTITLE2=Mexican Silver
TTITLE3=Slow Moving Rivers
TTITLE4=Adobe Walls
TTITLE5=All Our Clear Blue Mornings
TTITLE6=Rebecca
TTITLE7=Queen of the Detours
TTITLE8=Railroad Man
TTITLE9=Talking To Ulysses
TTITLE10=What It Takes
TTITLE11=Motion/Still
EXTD=
EXTT0=
EXTT1=
EXTT2=
EXTT3=
EXTT4=
EXTT5=
EXTT6=
EXTT7=
EXTT8=
EXTT9=
EXTT10=
EXTT11=
PLAYORDER=
